Coordinates
version=1
nRows=9
nColumns=63
inDegrees=yes

Units are S.I. units (second, meters, Newtons, ...)
If the header above contains a line with 'inDegrees', this indicates whether rotational values are in degrees (yes) or radians (no).

endheader
time	pelvis_tilt	pelvis_list	pelvis_rotation	pelvis_tx	pelvis_ty	pelvis_tz	hip_flexion_r	hip_adduction_r	hip_rotation_r	knee_angle_r	knee_angle_r_beta	ankle_angle_r	subtalar_angle_r	mtp_angle_r	hip_flexion_l	hip_adduction_l	hip_rotation_l	knee_angle_l	knee_angle_l_beta	ankle_angle_l	subtalar_angle_l	mtp_angle_l	L5_S1_Flex_Ext	L5_S1_Lat_Bending	L5_S1_axial_rotation	L4_L5_Flex_Ext	L4_L5_Lat_Bending	L4_L5_axial_rotation	L3_L4_Flex_Ext	L3_L4_Lat_Bending	L3_L4_axial_rotation	L2_L3_Flex_Ext	L2_L3_Lat_Bending	L2_L3_axial_rotation	L1_L2_Flex_Ext	L1_L2_Lat_Bending	L1_L2_axial_rotation	L1_T12_Flex_Ext	L1_T12_Lat_Bending	L1_T12_axial_rotation	Abs_r3	Abs_r2	Abs_r1	Abs_t1	Abs_t2	neck_flexion	neck_bending	neck_rotation	arm_flex_r	arm_add_r	arm_rot_r	elbow_flex_r	pro_sup_r	wrist_flex_r	wrist_dev_r	arm_flex_l	arm_add_l	arm_rot_l	elbow_flex_l	pro_sup_l	wrist_flex_l	wrist_dev_l
      1.61666667	      1.30821656	     -6.14126534	     89.90003069	      0.31878753	      0.87822136	      0.57755322	      3.31641845	     -0.15199324	      7.92874129	      4.17032918	      0.07278598	     28.47845161	    -10.05434693	      0.00000000	      5.20827826	     -2.62993413	      0.37436815	      4.37990053	      0.07644369	     36.56667110	     10.07731999	      0.00000000	      0.59812360	      0.35919501	      0.19037197	      1.11077534	      0.47772936	      0.20227021	      0.98265726	      0.87334674	      0.20227021	      0.68359546	      0.87334674	      0.16657547	      0.55541758	      0.73247046	      0.15467722	      0.34176783	      0.55639307	      0.14277897	      4.27233707	      4.06328576	      1.05879176	      0.00000000	      0.00000000	     28.41321711	      6.58347692	     15.64467690	     34.64510387	    -10.18541733	     52.27254150	     43.74326799	     87.57876892	     -5.91117105	     15.63186553	     22.01280191	     -8.06298475	     64.43579431	     33.91224333	     86.03353377	    -20.50370588	    -10.77614343
      1.63333333	      1.39716348	     -6.25163708	     89.56392078	      0.32085080	      0.87762770	      0.57948493	      3.43291755	      0.08158586	      9.23875006	      3.93137206	      0.06861539	     27.65388835	    -11.64659517	      0.00000000	      5.24633914	     -2.84822170	      1.42240362	      4.22240129	      0.07369480	     36.19999942	      8.54517319	      0.00000000	      0.57758989	      0.35770021	      0.32669553	      1.07264218	      0.47574128	      0.34711400	      0.94892242	      0.86971228	      0.34711400	      0.66012748	      0.86971228	      0.28585859	      0.53634997	      0.72942226	      0.26544012	      0.33003486	      0.55407762	      0.24502165	      4.12566680	      4.04637628	      1.81698253	      0.00000000	      0.00000000	     28.40070108	      6.17872610	     14.55729513	     31.69432741	    -10.33540598	     48.96194673	     43.50700610	     86.70909120	     -5.35219427	     17.39606606	     23.31487026	     -7.56410955	     69.15371128	     33.22821997	     86.09197446	    -22.21620209	     -9.79610608
      1.65000000	      1.55993533	     -6.53161076	     89.42938300	      0.32284526	      0.87708850	      0.58140698	      3.75648359	      0.35971560	      9.45279774	      3.80349536	      0.06638352	     27.15576487	    -11.86338396	      0.00000000	      5.59401706	     -3.17849865	      1.70460542	      4.28224668	      0.07473930	     36.06418492	      8.28817736	      0.00000000	      0.57396763	      0.36923827	      0.32940705	      1.06591528	      0.49108689	      0.34999499	      0.94297141	      0.89776592	      0.34999499	      0.65598760	      0.89776592	      0.28823117	      0.53298634	      0.75295067	      0.26764323	      0.32796510	      0.57195007	      0.24705529	      4.09979336	      4.17689711	      1.83206320	      0.00000000	      0.00000000	     28.38712551	      6.73340971	     14.84441295	     29.27788182	    -10.38487278	     47.55045849	     43.26399342	     84.42017355	     -5.79593729	     17.34139846	     23.17435468	     -7.23422259	     69.72675067	     32.96416820	     85.95464837	    -20.56210942	     -9.29249679
      1.66666667	      1.35453655	     -6.83013390	     89.20929094	      0.32489767	      0.87650389	      0.58253692	      4.05124051	      0.25961251	      9.95598153	      3.66775831	      0.06401446	     26.78455151	    -12.34208258	      0.00000000	      5.88772324	     -3.10964458	      2.01248792	      4.29218978	      0.07491284	     35.83270312	      7.93709029	      0.00000000	      0.57807852	      0.33191844	      0.42303596	      1.07354961	      0.44145153	      0.44947571	      0.94972520	      0.80702650	      0.44947571	      0.66068594	      0.80702650	      0.37015646	      0.53680371	      0.67684809	      0.34371672	      0.33031406	      0.51414167	      0.31727697	      4.12915704	      3.75472780	      2.35279909	      0.00000000	      0.00000000	     28.38486366	      7.02828054	     14.41286147	     26.49085077	    -10.95757576	     46.09513769	     43.90628713	     79.33688278	     -5.45082234	     16.72197965	     22.41076920	     -6.99524899	     68.83242682	     33.27126283	     84.30493725	    -17.14467828	     -8.61404810
      1.68333333	      1.38626554	     -6.93525915	     88.78063947	      0.32746180	      0.87647265	      0.58373376	      4.12946313	      0.47452553	     11.85863341	      3.45663258	      0.06032962	     25.76436395	    -14.48535197	      0.00000000	      5.80073169	     -3.25707160	      3.94892513	      3.94244154	      0.06880859	     35.07202562	      5.21476578	      0.00000000	      0.54579739	      0.32755313	      0.43674330	      1.01360033	      0.43564567	      0.46403975	      0.89669053	      0.79641268	      0.46403975	      0.62379183	      0.79641268	      0.38215038	      0.50682745	      0.66794635	      0.35485393	      0.31186863	      0.50737980	      0.32755747	      3.89857615	      3.70534654	      2.42903520	      0.00000000	      0.00000000	     28.38698799	      6.88662628	     14.03465486	     26.23749637	    -11.65321878	     52.32298245	     42.98963660	     60.22610426	     -7.40560230	     14.25670335	     20.86567344	     -6.76871058	     65.53223641	     33.44547099	     80.86658291	    -12.29799105	     -8.58797522
      1.70000000	      1.32758227	     -7.28866912	     88.39986166	      0.32977686	      0.87625066	      0.58448554	      4.50155231	      0.55540696	     12.58869661	      3.35462524	      0.05854926	     25.21258386	    -15.05207824	      0.00000000	      5.89913570	     -3.29516549	      6.27852899	      3.40085889	      0.05935619	     34.12390897	      2.05948643	      0.00000000	      0.56016835	      0.31533711	      0.52951579	      1.04028864	      0.41939836	      0.56261053	      0.92030058	      0.76671065	      0.56261053	      0.64021641	      0.76671065	      0.46332632	      0.52017233	      0.64303543	      0.43023158	      0.32008020	      0.48845718	      0.39713684	      4.00122651	      3.56715646	      2.94500798	      0.00000000	      0.00000000	     28.39322118	      7.19388898	     14.00372375	     25.21105056	    -12.18408356	     55.90856715	     42.09528964	     56.09390437	     -7.27645050	     11.30159602	     19.75805739	     -6.39670787	     64.70723811	     33.56243887	     73.92985055	     -8.49073719	     -8.39825855
      1.71666667	      1.32154027	     -7.68588742	     87.98185874	      0.33185897	      0.87605115	      0.58517188	      4.96466671	      0.68689747	     13.08774114	      3.35484606	      0.05855311	     24.83623135	    -15.21369794	      0.00000000	      6.12097991	     -3.42800902	      6.85268788	      2.98370301	      0.05207544	     33.60219541	      1.08396268	      0.00000000	      0.59165241	      0.31681940	      0.64682977	      1.09875769	      0.42136980	      0.68725663	      0.97202574	      0.77031469	      0.68725663	      0.67619954	      0.77031469	      0.56597605	      0.54940843	      0.64605812	      0.52554919	      0.33807019	      0.49075325	      0.48512232	      4.22611399	      3.58392444	      3.59747311	      0.00000000	      0.00000000	     28.40546889	      7.00217361	     13.51647405	     24.13442288	    -12.38699576	     59.01489791	     40.48212362	     57.81920488	     -7.03809755	      8.00262221	     18.43827666	     -5.79825948	     63.04123723	     33.68541321	     69.10762200	     -5.43814281	     -7.41644758
      1.73333333	      1.41370201	     -7.95397154	     87.72530491	      0.33325063	      0.87589971	      0.58586450	      5.26761442	      0.87356844	     13.61207808	      3.30949190	      0.05776153	     24.40764560	    -15.61298649	      0.00000000	      5.93234093	     -3.54534831	     12.39368219	      1.87640416	      0.03274943	     31.58660303	     -6.36632153	      0.00000000	      0.61820585	      0.34205796	      0.76595397	      1.14807008	      0.45493708	      0.81382609	      1.01565038	      0.83167972	      0.81382609	      0.70654746	      0.83167972	      0.67020972	      0.57406595	      0.69752459	      0.62233760	      0.35324282	      0.52984778	      0.57446548	      4.41578253	      3.86942803	      4.26000618	      0.00000000	      0.00000000	     28.41200745	      6.62890519	     13.13386577	     22.93695531	    -12.54678419	     61.52909475	     38.75887947	     61.50867485	     -7.33411113	      5.72193239	     18.81282724	     -5.36746960	     69.13327669	     33.50645606	     50.99201680	     -3.50301106	     -8.33104810
      1.75000000	      1.69773884	     -8.13843956	     87.46347552	      0.33420296	      0.87576106	      0.58711742	      5.60611627	      1.24965599	     13.69102518	      3.45923830	      0.06037510	     24.33952175	    -15.43937612	      0.00000000	      6.00423478	     -3.91143552	     14.18178111	      1.42545303	      0.02487885	     30.83331501	     -8.95731492	      0.00000000	      0.62774590	      0.40720092	      0.79252139	      1.16578691	      0.54157723	      0.84205397	      1.03132374	      0.99006833	      0.84205397	      0.71745079	      0.99006833	      0.69345621	      0.58292484	      0.83036413	      0.64392363	      0.35869401	      0.63075423	      0.59439104	      4.48392618	      4.60633830	      4.40776620	      0.00000000	      0.00000000	     28.41429692	      6.53429013	     13.65599236	     21.83128573	    -12.30228758	     63.30686727	     36.58633343	     69.29650178	     -7.24509567	      3.58697100	     18.15103170	     -4.89647869	     70.09866311	     33.88945965	     41.82121231	     -1.76091632	     -7.53785715
